<?xml version="1.0" encoding="utf-8"?>
<!-- Generator: Adobe Illustrator 19.2.1, SVG Export Plug-In . SVG Version: 6.00 Build 0)  -->
<svg version="1.1" xmlns="http://www.w3.org/2000/svg" xmlns:xlink="http://www.w3.org/1999/xlink" x="0px" y="0px"
	 viewBox="0 0 13.4 13.4" style="enable-background:new 0 0 13.4 13.4;" xml:space="preserve">
<style type="text/css">
	.st0{fill:#505151;}
</style>
<g id="Layer_1">
</g>
<g id="Search">
	<g>
		<g>
			<g>
				<path class="st0" d="M4.9,9.8c-1.3,0-2.5-0.5-3.5-1.4C0.5,7.5,0,6.2,0,4.9s0.5-2.5,1.4-3.5C2.4,0.5,3.6,0,4.9,0s2.5,0.5,3.5,1.4
					c1.9,1.9,1.9,5,0,6.9C7.5,9.3,6.2,9.8,4.9,9.8z M4.9,0.8C3.8,0.8,2.8,1.2,2,2C1.2,2.8,0.8,3.8,0.8,4.9S1.2,7,2,7.8
					C2.8,8.6,3.8,9,4.9,9S7,8.6,7.8,7.8c1.6-1.6,1.6-4.2,0-5.8C7,1.2,6,0.8,4.9,0.8z"/>
			</g>
			<g>
				<path class="st0" d="M13,13.4c-0.1,0-0.2,0-0.3-0.1L7.8,8.4C7.6,8.2,7.6,8,7.8,7.8s0.4-0.2,0.6,0l4.9,4.9c0.2,0.2,0.2,0.4,0,0.6
					C13.2,13.4,13.1,13.4,13,13.4z"/>
			</g>
		</g>
	</g>
</g>
</svg>
