<?xml version="1.0" encoding="utf-8"?>
<!-- Generator: Adobe Illustrator 18.1.1, SVG Export Plug-In . SVG Version: 6.00 Build 0)  -->
<svg version="1.1" id="Layer_1" xmlns="http://www.w3.org/2000/svg" xmlns:xlink="http://www.w3.org/1999/xlink" x="0px" y="0px"
	 viewBox="-191 193 48 48" enable-background="new -191 193 48 48" xml:space="preserve">
<g>
	<path fill="#FFFFFF" d="M-158.4,213.3L-158.4,213.3c-2.1,1.2-4.9,2.5-8.2,3.5c-0.7,0.2-1.2,0.1-1.4,0c-3.3-1.4-5.6-2.5-7.7-3.7
		c0,0,0,0,0,0c-1.3-0.7-1.3,0-1.3,0v8.1c0,1.1,0.9,2,2,2h15.3c1.1,0,2-0.9,2-2v-7.9C-157.6,212.8-158.4,213.3-158.4,213.3z"/>
	<path fill="#FFFFFF" d="M-167,193c-13.3,0-24,10.7-24,24c0,13.3,10.7,24,24,24s24-10.7,24-24C-143,203.7-153.7,193-167,193z
		 M-153.8,224.4c0,1.1-0.9,2-2,2h-22.4c-1.1,0-2-0.9-2-2v-14.8c0-1.1,0.9-2,2-2h22.4c1.1,0,2,0.9,2,2V224.4z"/>
</g>
</svg>
