<?xml version="1.0" encoding="utf-8"?>
<!-- Generator: Adobe Illustrator 18.1.1, SVG Export Plug-In . SVG Version: 6.00 Build 0)  -->
<svg version="1.1" id="Layer_1" xmlns="http://www.w3.org/2000/svg" xmlns:xlink="http://www.w3.org/1999/xlink" x="0px" y="0px"
	 viewBox="0 0 432 432" enable-background="new 0 0 432 432" xml:space="preserve">
<path fill="#FFFFFF" stroke="#FFFFFF" stroke-miterlimit="10" d="M216,5.3C97.2,5.3,0,102.5,0,221.3c0,95.9,62.1,176.9,147.1,205.2
	c10.8,1.4,14.9-4.1,14.9-10.8c0-5.4,0-18.9,0-37.8c-59.4,13.5-72.9-28.4-72.9-28.4c-9.4-24.3-24.3-31.1-24.3-31.1
	C44.6,305,66.2,305,66.2,305c21.6,1.4,33.8,21.6,33.8,21.6c18.9,32.4,49.9,22.9,63.4,17.6c1.4-13.5,8.1-22.9,13.5-28.4
	c-48.6-5.4-98.6-24.3-98.6-106.6c0-22.9,8.1-43.2,21.6-58.1c-2.7-5.4-9.4-27,2.7-56.7c0,0,17.6-5.4,59.4,21.6
	c17.6-5.4,35.1-6.8,54-6.8s36.4,2.7,54,6.8c41.9-28.4,59.4-21.6,59.4-21.6c12.1,29.7,4.1,51.3,2.7,56.7
	c13.5,14.9,21.6,33.8,21.6,58.1c0,82.4-49.9,101.2-98.6,106.6c8.1,6.8,14.9,20.2,14.9,39.1c0,27,0,52.6,0,59.4
	c0,5.4,4.1,12.1,14.9,9.4C371.2,395.4,432,314.4,432,218.6C432,102.5,334.8,5.3,216,5.3z"/>
</svg>
