<?xml version="1.0" encoding="utf-8"?>
<!-- Generator: Adobe Illustrator 18.1.1, SVG Export Plug-In . SVG Version: 6.00 Build 0)  -->
<svg version="1.1" id="Layer_1" xmlns:sketch="http://www.bohemiancoding.com/sketch/ns"
	 xmlns="http://www.w3.org/2000/svg" xmlns:xlink="http://www.w3.org/1999/xlink" x="0px" y="0px" viewBox="-185 187 60 60"
	 enable-background="new -185 187 60 60" xml:space="preserve">
<title></title>
<g id="black">
	<g id="instagram">
		<path id="Instagram" fill="#262626" d="M-155,247c16.6,0,30-13.4,30-30s-13.4-30-30-30s-30,13.4-30,30S-171.6,247-155,247z"/>
		<path fill="#FFFFFF" d="M-163.2,211.2h-9.1v-1.2l0,0c0,11.1,0,18.1,0,18.1c0,5,5,5,5,5h23.5c0,0,5,0,5-5v-16.9l0,0v-1.2h-9.8
			c-1.6-2.1-4.1-3.5-6.9-3.5s-5.3,1.4-6.9,3.5h-9.8c0-1.7,0-3.5,0-5.4c0-3.2,2-4.3,3.5-4.7v6.7h1.2v-6.9l0,0c0.2,0,0.4,0,0.4,0h23.5
			c0,0,5,0,5,5v6.5h-9.1c0.6,1.2,1,2.6,1,4c0,4.8-3.9,8.7-8.7,8.7s-8.7-3.9-8.7-8.7C-164.2,213.8-163.9,212.4-163.2,211.2
			L-163.2,211.2z M-144.9,202c-1.1,0-2,0.9-2,2v1.8c0,1.1,0.9,2,2,2h1.8c1.1,0,2-0.9,2-2V204c0-1.1-0.9-2-2-2H-144.9z M-164.2,199.7
			v6.9h1.2v-6.9H-164.2z M-166.5,199.7v6.9h1.2v-6.9H-166.5z M-155.6,222.2c3.8,0,6.9-3.1,6.9-6.9c0-3.8-3.1-6.9-6.9-6.9
			c-3.8,0-6.9,3.1-6.9,6.9C-162.5,219.1-159.4,222.2-155.6,222.2z M-155.6,219.9c2.5,0,4.6-2.1,4.6-4.6c0-2.5-2.1-4.6-4.6-4.6
			c-2.5,0-4.6,2.1-4.6,4.6C-160.2,217.8-158.1,219.9-155.6,219.9z"/>
	</g>
</g>
</svg>
