<?xml version="1.0" encoding="utf-8"?>
<!-- Generator: Adobe Illustrator 18.1.1, SVG Export Plug-In . SVG Version: 6.00 Build 0)  -->
<svg version="1.1" id="Layer_1" xmlns="http://www.w3.org/2000/svg" xmlns:xlink="http://www.w3.org/1999/xlink" x="0px" y="0px"
	 viewBox="-199 201 32 32" enable-background="new -199 201 32 32" xml:space="preserve">
<path fill="#FFFFFF" stroke="#FFFFFF" stroke-miterlimit="10" d="M-171,215h-19.2l4.6-4.6c0.4-0.4,0.6-0.9,0.6-1.4c0-1-0.8-2-2-2
	c-0.5,0-1,0.2-1.4,0.6l-8,8c-0.3,0.3-0.7,0.7-0.7,1.5s0.3,1.1,0.6,1.4l8,8c0.4,0.4,0.8,0.6,1.4,0.6c1.2,0,2-1,2-2
	c0-0.5-0.2-1-0.6-1.4l-4.6-4.6h19.2c1.1,0,2-0.9,2-2S-169.9,215-171,215z"/>
</svg>
