<?xml version="1.0" encoding="utf-8"?>
<!-- Generator: Adobe Illustrator 18.1.1, SVG Export Plug-In . SVG Version: 6.00 Build 0)  -->
<svg version="1.1" id="Layer_1" xmlns:sketch="http://www.bohemiancoding.com/sketch/ns"
	 xmlns="http://www.w3.org/2000/svg" xmlns:xlink="http://www.w3.org/1999/xlink" x="0px" y="0px" viewBox="-185 187 60 60"
	 enable-background="new -185 187 60 60" xml:space="preserve">
<title></title>
<g id="black">
	<g id="linkedin">
		<path id="Linkedin" fill="#262626" d="M-155,247c16.6,0,30-13.4,30-30s-13.4-30-30-30s-30,13.4-30,30S-171.6,247-155,247z"/>
		<path fill="#FFFFFF" d="M-163.1,230.8v-18.3h-5.7v18.3H-163.1z M-163.1,206c0-1.6-1.1-2.9-2.9-2.9c-1.8,0-2.9,1.2-2.9,2.9
			c0,1.6,1.1,2.9,2.9,2.9h0C-164.2,208.9-163.1,207.6-163.1,206z M-153.9,230.8v-10.4c0-0.6,0-1.1,0.2-1.5c0.4-1.1,1.5-2.3,3.2-2.3
			c2.2,0,3.7,1.3,3.7,3.8v10.4h5.7v-10.7c0-5.7-3.1-8.4-7.1-8.4c-3.3,0-4.8,1.9-5.6,3.1l0-2.4h-5.7c0.1,1.8,0,18.4,0,18.4H-153.9z"
			/>
	</g>
</g>
</svg>
