<?xml version="1.0" encoding="utf-8"?>
<!-- Generator: Adobe Illustrator 18.1.1, SVG Export Plug-In . SVG Version: 6.00 Build 0)  -->
<svg version="1.1" id="Layer_1" xmlns:sketch="http://www.bohemiancoding.com/sketch/ns"
	 xmlns="http://www.w3.org/2000/svg" xmlns:xlink="http://www.w3.org/1999/xlink" x="0px" y="0px" viewBox="0 0 432 432"
	 enable-background="new 0 0 432 432" xml:space="preserve">
<title></title>
<g id="black">
	<g id="linkedin">
		<path id="Linkedin" fill="#FFFFFF" d="M216,432c119.5,0,216-96.5,216-216S335.5,0,216,0S0,96.5,0,216S96.5,432,216,432z"/>
		<path fill="#527EAB" d="M157.7,315.4V183.6h-41v131.8H157.7z M157.7,136.8c0-11.5-7.9-20.9-20.9-20.9c-13,0-20.9,8.6-20.9,20.9
			c0,11.5,7.9,20.9,20.9,20.9l0,0C149.8,157.7,157.7,148.3,157.7,136.8z M223.9,315.4v-74.9c0-4.3,0-7.9,1.4-10.8
			c2.9-7.9,10.8-16.6,23-16.6c15.8,0,26.6,9.4,26.6,27.4v74.9h41v-77c0-41-22.3-60.5-51.1-60.5c-23.8,0-34.6,13.7-40.3,22.3v-17.3
			h-41c0.7,13,0,132.5,0,132.5L223.9,315.4L223.9,315.4z"/>
	</g>
</g>
</svg>
