<?xml version="1.0" encoding="utf-8"?>
<!-- Generator: Adobe Illustrator 18.1.1, SVG Export Plug-In . SVG Version: 6.00 Build 0)  -->
<svg version="1.1" id="Layer_1" xmlns="http://www.w3.org/2000/svg" xmlns:xlink="http://www.w3.org/1999/xlink" x="0px" y="0px"
	 viewBox="0 0 432 432" enable-background="new 0 0 432 432" xml:space="preserve">
<path fill="#FFFFFF" d="M53.3,243.7h259.2l-62.1,62.1c-5.4,5.4-8.1,12.1-8.1,18.9c0,13.5,10.8,27,27,27c6.8,0,13.5-2.7,18.9-8.1
	l108-108c4.1-4.1,9.4-9.4,9.4-20.2s-4.1-14.9-8.1-18.9l-108-108c-5.4-5.4-10.8-8.1-18.9-8.1c-16.2,0-27,13.5-27,27
	c0,6.8,2.7,13.5,8.1,18.9l62.1,62.1H53.3c-14.9,0-27,12.1-27,27S38.5,243.7,53.3,243.7z"/>
</svg>
