<?xml version="1.0" encoding="utf-8"?>
<!-- Generator: Adobe Illustrator 18.1.1, SVG Export Plug-In . SVG Version: 6.00 Build 0)  -->
<svg version="1.1" id="Layer_1" xmlns="http://www.w3.org/2000/svg" xmlns:xlink="http://www.w3.org/1999/xlink" x="0px" y="0px"
	 viewBox="0 0 432 432" enable-background="new 0 0 432 432" xml:space="preserve">
<g>
	<path fill="#FFFFFF" d="M216.6,0C97.7,0,1.1,96.8,1.1,216s96.6,216,215.4,216S432,335.2,432,216S335.4,0,216.6,0z M331.2,159.7
		c-5.8,8.5-12.7,16.2-21.2,22.4c0,1.2,0,2.7,0,3.9c0,62.9-47.7,128-127.7,128c-24.6,0-48.1-6.9-68.9-20.1c-1.5-1.2-2.3-2.7-1.5-4.6
		c0.8-1.5,2.3-2.7,4.2-2.7c3.5,0.4,6.5,0.8,10,0.8c15.8,0,30.8-4.2,43.9-12.3c-15.8-3.9-28.9-15.8-33.9-31.6c-0.4-1.2,0-2.7,0.8-3.9
		s2.3-1.5,3.5-1.2c0.8,0,1.5,0.4,2.3,0.4c-13.5-8.5-21.9-23.5-21.9-40.1v-0.4c0-1.5,0.8-2.7,1.9-3.5c1.2-0.8,2.7-0.8,3.8,0
		c1.5,0.8,3.5,1.9,5,2.3c-6.9-8.5-10.4-18.9-10.4-30.1c0-8.5,2.3-16.6,6.5-23.9c0.8-1.2,1.9-1.9,3.1-1.9s2.3,0.4,3.5,1.5
		c20.4,25.1,50.4,40.9,82.3,44c-0.4-1.9-0.4-3.9-0.4-5.8c0-26.2,21.2-47.4,47.3-47.4c12.3,0,24.2,5,33.1,13.5
		c8.5-1.9,16.9-5,24.6-9.6c1.5-0.8,3.1-0.8,4.2,0.4c1.2,1.2,1.9,2.7,1.2,4.2c-1.9,5.8-5,11.6-8.8,16.2c3.1-1.2,6.5-2.3,9.6-3.5
		c1.5-0.8,3.5-0.4,4.6,1.2C332,156.2,332.4,158.2,331.2,159.7z"/>
</g>
</svg>
